<?xml version="1.0" standalone="no"?>
<!DOCTYPE svg PUBLIC "-//W3C//DTD SVG 20010904//EN"
 "http://www.w3.org/TR/2001/REC-SVG-20010904/DTD/svg10.dtd">
<svg version="1.0" xmlns="http://www.w3.org/2000/svg"
 width="700.000000pt" height="700.000000pt" viewBox="0 0 700.000000 700.000000"
 preserveAspectRatio="xMidYMid meet">
<metadata>
Created by potrace 1.14, written by Peter Selinger 2001-2017
</metadata>
<g transform="translate(0.000000,700.000000) scale(0.100000,-0.100000)"
fill="#000000" stroke="none">
<path d="M3548 6938 c-86 -101 -122 -148 -180 -238 -164 -253 -256 -507 -284
-785 l-6 -60 -52 50 c-110 108 -235 201 -376 280 -74 41 -151 77 -275 128 -55
23 -175 60 -180 56 -15 -17 -22 -340 -10 -459 17 -161 54 -354 91 -468 17 -53
17 -62 1 -62 -17 0 -251 -64 -292 -80 -16 -6 -31 -11 -32 -11 -6 1 -192 -79
-248 -106 -104 -50 -291 -159 -350 -205 -5 -5 -37 -28 -70 -53 -137 -105 -334
-301 -417 -415 -18 -25 -35 -47 -38 -50 -8 -6 -121 -177 -136 -205 -155 -284
-240 -515 -298 -810 -27 -137 -31 -167 -43 -305 -14 -161 -7 -501 11 -610 3
-14 7 -43 11 -65 20 -132 69 -329 121 -475 50 -142 168 -392 225 -478 16 -24
29 -45 29 -48 0 -7 101 -157 117 -172 7 -8 18 -23 24 -34 6 -11 19 -29 29 -41
10 -12 44 -53 77 -92 111 -134 301 -317 443 -426 439 -340 923 -553 1470 -648
208 -36 332 -46 595 -46 264 0 334 6 585 46 202 33 514 120 676 189 27 12 67
29 89 38 76 32 260 125 335 170 41 25 84 50 95 56 19 11 170 112 190 128 290
227 469 405 638 633 86 116 80 108 94 131 6 10 34 56 62 101 82 132 174 322
223 463 16 47 34 94 38 105 8 18 44 147 56 200 13 55 36 175 40 210 3 22 7 46
10 54 9 28 18 200 18 351 1 148 -10 375 -18 389 -2 3 -7 33 -11 66 -3 33 -15
101 -26 150 -11 50 -22 101 -25 115 -10 52 -67 229 -106 330 -80 207 -189 400
-325 581 -77 102 -263 297 -348 364 -27 22 -55 45 -62 51 -6 6 -51 38 -100 70
-48 32 -89 62 -91 67 -2 4 -8 7 -13 7 -5 0 -26 11 -47 23 -163 103 -493 234
-679 272 -30 6 -31 7 -21 38 21 66 68 264 74 312 4 28 8 53 10 56 17 29 28
578 12 594 -15 15 -254 -74 -394 -146 -145 -75 -320 -195 -384 -263 -30 -31
-50 -33 -50 -5 0 44 -41 221 -80 341 -72 224 -191 466 -318 641 l-49 68 -55
-63z"/>
</g>
</svg>
