<svg width="43" height="43" viewBox="0 0 43 43" fill="none" xmlns="http://www.w3.org/2000/svg">
<path d="M21.9383 17.353C21.9383 17.353 23.5263 6.75961 13.4635 3.84625C13.4648 3.84625 11.8755 14.1743 21.9383 17.353Z" fill="#008218"/>
<path d="M21.4862 17.353C21.4862 17.353 19.8976 6.75961 29.961 3.84625C29.9597 3.84625 31.5497 14.1743 21.4862 17.353Z" fill="#008218"/>
<path d="M21.8204 15.9406C21.8204 15.9406 15.0031 7.67941 22.1283 0C22.1283 0 28.8099 8.03449 21.8204 15.9406Z" fill="#008218"/>
<path d="M40.9016 25.303C40.9016 35.0769 32.2146 43 21.4993 43C10.7828 43 2.09772 35.0769 2.09772 25.303C2.09772 17.4932 6.7845 11.2433 14.6998 9.79546C18.5139 9.09841 21.4993 12.0832 21.4993 12.0832C21.4993 12.0832 24.2489 9.2314 27.8947 9.73781C35.5708 10.8037 40.9016 16.7503 40.9016 25.303Z" fill="#FF6753"/>
</svg>
