<svg width="292" height="307" viewBox="0 0 292 307" fill="none" xmlns="http://www.w3.org/2000/svg">
<path d="M155.106 131.393C155.106 131.393 167.025 51.8884 91.5026 30.0234C91.5125 30.0234 79.5843 107.537 155.106 131.393Z" fill="#76A16F"/>
<path d="M137.293 129.892C137.293 129.892 125.37 50.3872 200.897 28.5222C200.887 28.5222 212.82 106.036 137.293 129.892Z" fill="#76A16F"/>
<path d="M145.166 119.636C145.166 119.636 94.0018 57.6347 147.477 0C147.477 0 197.623 60.2996 145.166 119.636Z" fill="#76A16F"/>
<path d="M291.227 174.139C291.227 247.493 226.03 306.957 145.611 306.957C65.182 306.957 0 247.493 0 174.139C0 115.526 35.1748 68.6197 94.5795 57.7536C123.205 52.5221 145.611 74.9231 145.611 74.9231C145.611 74.9231 166.247 53.5203 193.609 57.3209C251.219 65.3206 291.227 109.95 291.227 174.139Z" fill="#FF6753"/>
</svg>
